# xmcd
#
# Track frame offsets:
#	150
#	29237
#	63992
#	96395
#	126575
#	162200
#	193957
#	225980
#	263725
#
# Disc length: 3931 seconds
#
# Revision: 0
# Processed by: cddbd v1.5.2PL0 Copyright (c) Steve Scherf et al.
# Submitted via: VUPlayer 2.45
#
DISCID=820f5909
DTITLE=Kurt Weil and Vibes Revisited - Late - But Not Too Late
DYEAR=1997
DGENRE=Jazz
TTITLE0=This Point - That Time
TTITLE1=Minor Rumblings
TTITLE2=Backlash
TTITLE3=Prince Never Came
TTITLE4=Blues Outside
TTITLE5=Not Too Late
TTITLE6=Sub Zero
TTITLE7=Miles To Go
TTITLE8=Perpetuum Brasiliensis
EXTD=Jazz vibes. NOT Kurt Weill.\n\nColumbuia 487886-2
EXTT0=
EXTT1=
EXTT2=
EXTT3=
EXTT4=
EXTT5=
EXTT6=
EXTT7=
EXTT8=
PLAYORDER=
